<?xml version="1.0" encoding="utf-8"?>
<!-- Generator: Adobe Illustrator 22.0.1, SVG Export Plug-In . SVG Version: 6.00 Build 0)  -->
<svg version="1.1" id="Layer_1" xmlns="http://www.w3.org/2000/svg" xmlns:xlink="http://www.w3.org/1999/xlink" x="0px" y="0px"
	 viewBox="0 0 400 400" style="enable-background:new 0 0 400 400;" xml:space="preserve">
<style type="text/css">
	.st0{fill:#FFFFFF;}
	.st1{fill:none;stroke:#FFFFFF;stroke-width:20;stroke-miterlimit:10;}
</style>
<path class="st0" d="M246.7,303.4c-3.2,0.7-9.1-2.6-9.1-6.2v-35.6c0-11.9-3.9-19.8-8.6-23.6l0,0c28.5-3.4,58.7-13.7,58.7-63.1
	c0-14-4.9-25.5-12.9-34.3c1.3-3.4,5.4-16.1-1.6-33.8c0,0-10.3-3.4-34.7,13c-10.3-2.9-21.7-4.6-32.4-4.6c-10.9,0-22.3,1.8-32.4,4.6
	c-24.6-16.4-34.9-13-34.9-13c-7,17.6-2.9,30.4-1.5,33.8c-8,8.8-12.9,20.2-12.9,34.3c0,49.4,30.3,59.7,58.7,63.1
	c-3.7,3.1-7,9.1-8.3,17.4c-7.2,3.1-26.1,9.1-37.5-10.7c0,0-6.8-12.2-19.4-13c0,0-12.7-0.3-1.1,7.8c0,0,8.6,3.9,14.3,18.7
	c0,0,7.8,24.7,43.5,16.8v22.1c0,3.4-2.6,7.3-9.1,6.2L246.7,303.4z"/>
<circle class="st1" cx="200" cy="200" r="181.1"/>
</svg>
