<?xml version="1.0" encoding="utf-8"?>
<!-- Generator: Adobe Illustrator 22.0.1, SVG Export Plug-In . SVG Version: 6.00 Build 0)  -->
<svg version="1.1" id="Layer_1" xmlns="http://www.w3.org/2000/svg" xmlns:xlink="http://www.w3.org/1999/xlink" x="0px" y="0px"
	 viewBox="0 0 400 400" style="enable-background:new 0 0 400 400;" xml:space="preserve">
<style type="text/css">
	.st0{fill:none;stroke:#FFFFFF;stroke-width:20;stroke-miterlimit:10;}
	.st1{fill:#FFFFFF;}
</style>
<circle class="st0" cx="200" cy="200" r="181.1"/>
<path class="st1" d="M273.8,112.8H126.2c-7.1,0-12.8,5.6-12.8,12.5v149.3c0,6.9,5.7,12.5,12.8,12.5h147.6c7.1,0,12.8-5.6,12.8-12.5
	V125.3C286.6,118.4,280.9,112.8,273.8,112.8z M165.9,258.8h-26.2V180h26.2V258.8z M152.8,169.3L152.8,169.3h-0.2
	c-8.8,0-14.5-6-14.5-13.6c0-7.7,5.9-13.6,14.8-13.6c9,0,14.5,5.9,14.6,13.6C167.6,163.3,161.9,169.3,152.8,169.3z M260.2,258.8
	h-26.2v-42.1c0-10.6-3.8-17.8-13.3-17.8c-7.2,0-11.5,4.9-13.4,9.6c-0.7,1.7-0.9,4-0.9,6.4v44h-26.2c0,0,0.3-71.3,0-78.7h26.2v11.1
	c3.5-5.4,9.7-13,23.6-13c17.2,0,30.1,11.3,30.1,35.4V258.8z"/>
</svg>
